<?xml version="1.0" encoding="UTF-8"?>
<svg id="Layer_2" data-name="Layer 2" xmlns="http://www.w3.org/2000/svg" viewBox="0 0 349.95 435.2">
  <defs>
    <style>
      .cls-1 {
        fill: #a40634;
      }

      .cls-2 {
        fill: #ffda3e;
      }

      .cls-3 {
        fill: #ff9796;
      }

      .cls-4 {
        fill: #d34059;
      }

      .cls-5 {
        fill: #fe537a;
      }

      .cls-6 {
        fill: #fd7270;
      }

      .cls-7 {
        opacity: .53;
      }

      .cls-8 {
        fill: #5e041c;
      }

      .cls-9 {
        fill: #ff0d36;
      }

      .cls-10 {
        fill: #d38700;
      }

      .cls-11 {
        fill: #efa508;
      }

      .cls-12 {
        fill: #fcbdcf;
      }

      .cls-13 {
        fill: #fcff6d;
      }
    </style>
  </defs>
  <g id="_ÎÓÈ_1" data-name="—ÎÓÈ_1">
    <g>
      <path class="cls-1" d="M3.22,329.97s-2.8,15.59,1.76,21.09,14.83-1.08,13.74-6.5-12.85-16.09-12.85-16.09l-2.64,1.5Z"/>
      <g>
        <path class="cls-1" d="M176.54,425.84c2.87-2.71,6.56-5.01,16.75-3.4,9.94,1.57,11.51,10.05,10.48,11.6s-24.22,1.56-28.34,0c-4.39-1.66-.41-6.76,1.11-8.2Z"/>
        <path class="cls-1" d="M179.94,428.28c-.12,0-.24-.01-.36-.03-1.19-.2-1.99-1.32-1.79-2.51,4.35-26.26-3.01-52.95-3.09-53.22-.33-1.16.35-2.36,1.51-2.69,1.16-.33,2.36.35,2.69,1.51.32,1.12,7.71,27.87,3.19,55.12-.18,1.07-1.1,1.82-2.15,1.82Z"/>
      </g>
      <g>
        <path class="cls-1" d="M102.02,425.84c-2.87-2.71-6.56-5.01-16.75-3.4-9.94,1.57-11.51,10.05-10.48,11.6s24.22,1.56,28.34,0c4.39-1.66.41-6.76-1.11-8.2Z"/>
        <path class="cls-1" d="M98.61,428.28c-1.15,0-2.12-.9-2.17-2.07-1.33-25.84,3.12-54.34,3.16-54.62.19-1.19,1.31-2,2.49-1.81,1.19.19,2,1.31,1.81,2.5-.04.28-4.42,28.35-3.12,53.72.06,1.2-.86,2.23-2.07,2.29-.04,0-.07,0-.11,0Z"/>
      </g>
      <path class="cls-6" d="M237.72,124.38s37.26-30.89,25.74-49.97c-8.4-13.91-23.93-13.07-29.12-6.26-6.66,8.73-14.88,20.61-24.01,27.91l27.4,28.31Z"/>
      <g>
        <path class="cls-4" d="M246.5,81.69c5.19,3.75,11.61,4.65,13.54,1.99,1.92-2.66-.63-8.36-5.82-12.11s-11.05-4.11-12.98-1.45c-1.92,2.66.07,7.83,5.25,11.57Z"/>
        <path class="cls-1" d="M246.5,81.69c5.19,3.75,11.85,4.81,13.54,1.99,1.05-1.76-3.88.11-11.08-5-6.49-4.6-6.8-9.63-7.71-8.56-2.12,2.51.07,7.83,5.25,11.57Z"/>
      </g>
      <path class="cls-1" d="M237.55,127.35l-30.47-31.48,1.87-1.5c7.51-6.01,14.38-15.19,20.44-23.28,1.1-1.47,2.17-2.9,3.2-4.25,2.87-3.77,8.23-5.92,13.98-5.6,7.54.41,14.37,4.8,18.75,12.05,12.35,20.45-24.63,51.47-26.21,52.78l-1.55,1.29ZM213.52,96.24l24.33,25.14c6.72-5.96,32.9-30.67,23.74-45.84-3.62-6-9.18-9.63-15.25-9.95-4.27-.23-8.29,1.3-10.27,3.89h0c-1.02,1.34-2.08,2.76-3.17,4.22-5.74,7.66-12.18,16.27-19.37,22.54Z"/>
      <path class="cls-6" d="M139.57,64.5c84.5.97,136.22,85.64,124.3,181-2.04,16.33-4.04,25.23-6.46,39.3-.95,5.54-2.61,17.93,10.53,28.33,17.34,13.73,27.08,22.63,28.52,39.25,1.44,16.62-9.83,35.31-12.1,39.26-1.31,2.28-7.92,10.1-21.62,4.04-15.54-6.87-12.48-16.34-11.42-18.63,1.93-4.17,7.14-10.48,3.34-18.07-4.61-9.22-17.52-21.8-49.37-.75-23.36,15.44-51.51,22.88-75.57,22.88-59.42,0-107.92-47.3-117.74-143.25C3.23,152.06,44.71,63.41,139.57,64.5Z"/>
      <path class="cls-3" d="M139.57,64.5c84.5.97,136.22,85.64,124.3,181-2.04,16.33-4.04,25.23-6.46,39.3-.95,5.54-2.61,17.93,10.53,28.33,17.34,13.73,27.08,22.63,28.52,39.25,1.02,11.68-4.25,24.38-8.26,32.27-1.27-3.88-5.1-7.53-13.39-10.95-15.06-6.21-5.09-15.68-11.52-29.18-6.62-13.89-31.8-22.09-50.27-12.5-24.85,12.9-51.51,22.88-75.57,22.88-59.42,0-107.92-47.3-117.74-143.25-2.26-22.15-1.17-44.48,3.31-65.41,18.16-47.45,56.74-82.43,116.54-81.74Z"/>
      <g>
        <path class="cls-4" d="M271.17,378.06c-6.67-2.97-14.07-2.49-15.59.94s2.65,9.2,9.33,12.17,13.32,2.01,14.84-1.41c1.52-3.42-1.9-8.73-8.58-11.7Z"/>
        <path class="cls-1" d="M271.17,378.06c-6.67-2.97-14.37-2.6-15.59.94-.77,2.21,4.31-1.03,13.56,3,8.33,3.63,9.85,9.17,10.61,7.76,1.78-3.3-1.9-8.73-8.58-11.7Z"/>
      </g>
      <path class="cls-1" d="M272.24,400.08c-3.01,0-6.47-.69-10.36-2.41-6.77-2.99-11.08-6.86-12.84-11.49-2.45-6.48,1.07-11.54,1.66-12.61,2.17-3.93,4.63-8.4,2.02-13.61-1.87-3.75-5.49-8.59-12.04-10.34-8.68-2.33-20.18,1.18-34.18,10.44-22.35,14.77-50.33,23.24-76.77,23.24-30.99,0-58.35-12.58-79.11-36.39-21.98-25.2-36.09-62.82-40.79-108.82-5.52-53.92,8.86-105.45,38.46-137.86,23.04-25.22,54.57-38.34,91.31-37.91,34.9.4,65.65,14.71,88.93,41.39,30.72,35.21,44.4,86.99,37.51,142.06-1.46,11.71-2.93,19.76-4.49,28.29-.63,3.47-1.29,7.08-1.98,11.1-.77,4.47-2.8,16.33,9.73,26.25,17.24,13.65,27.82,23.2,29.34,40.77.96,11.03-3.1,24.49-12.06,39.99-.23.41-4.08,7.91-14.34,7.91ZM235.21,344.56c2.32,0,4.52.28,6.6.84,8.12,2.17,12.53,8.05,14.81,12.6,3.63,7.27.18,13.53-2.11,17.67-.75,1.36-3.02,4.67-1.4,8.97,1.32,3.5,4.86,6.55,10.52,9.05,13.81,6.1,18.81-3.08,19.17-3.7,8.51-14.71,12.37-27.3,11.49-37.42-1.33-15.29-9.88-23.62-27.7-37.73-14.56-11.53-12.12-25.74-11.32-30.41.69-4.04,1.35-7.66,1.99-11.15,1.55-8.47,3-16.47,4.45-28.05,6.63-53.05-7-104.88-36.47-138.65-22.44-25.72-52.07-39.51-85.69-39.9-35.41-.41-65.86,12.21-88.04,36.49-28.77,31.5-42.73,81.77-37.34,134.47,9.05,88.47,52.25,141.29,115.57,141.29,25.6,0,52.7-8.21,74.36-22.52,11.93-7.88,22.35-11.85,31.11-11.85Z"/>
      <path class="cls-12" d="M192.62,98.91c12.4-8.48,54.77,46.82,40.64,60.96-14.13,14.14-57.42-49.47-40.64-60.96Z"/>
      <ellipse class="cls-5" cx="191.74" cy="257.93" rx="15.46" ry="13.69"/>
      <ellipse class="cls-5" cx="86.81" cy="257.93" rx="15.46" ry="13.69"/>
      <g>
        <path class="cls-1" d="M169.1,221.05c-.1,0-.2,0-.31-.02-1.19-.17-2.02-1.27-1.86-2.46.82-5.82,5.38-16.83,16.81-16.83s17.22,10.04,18.83,15.35c.35,1.15-.3,2.37-1.45,2.72-1.15.35-2.37-.3-2.72-1.45-.16-.52-3.91-12.26-14.66-12.26s-12.48,12.94-12.5,13.07c-.15,1.09-1.09,1.88-2.16,1.88Z"/>
        <path class="cls-1" d="M106.29,221.05c-1.07,0-2-.79-2.16-1.88-.08-.53-2.01-13.07-12.49-13.07s-14.62,12.13-14.66,12.25c-.35,1.15-1.56,1.8-2.72,1.45-1.15-.35-1.8-1.57-1.45-2.72,1.61-5.31,7.62-15.35,18.83-15.35s16,11.01,16.81,16.83c.17,1.19-.66,2.3-1.86,2.46-.1.02-.2.02-.31.02Z"/>
      </g>
      <g>
        <path class="cls-8" d="M163.9,238.79c6.2,6.2-14.51,22.5-26.85,22.5s-27.53-15.94-25.4-21.05c3.63-8.71,46.45-7.26,52.25-1.45Z"/>
        <path class="cls-9" d="M150.11,247.5c4.01,4.01-5.81,9.44-11.61,9.44s-15.97-5.08-14.51-8.71,23.22-3.63,26.13-.73Z"/>
      </g>
      <g>
        <path class="cls-2" d="M324.94,129.62l1.73,19.01c.06.69.56,1.26,1.24,1.42l18.61,4.22c1.51.34,1.7,2.42.28,3.03l-17.54,7.52c-.64.27-1.02.92-.96,1.61l1.73,19.01c.14,1.54-1.77,2.36-2.8,1.2l-12.58-14.36c-.46-.52-1.2-.69-1.83-.42l-17.54,7.52c-1.42.61-2.8-.96-2-2.29l9.77-16.4c.35-.6.29-1.35-.17-1.87l-12.57-14.36c-1.02-1.17.05-2.96,1.56-2.61l18.61,4.23c.68.15,1.37-.15,1.73-.74l9.77-16.4c.79-1.33,2.83-.87,2.97.68Z"/>
        <path class="cls-2" d="M291.86,270.75c-.28,0-.56-.04-.84-.1-2.2-.51-3.57-2.7-3.07-4.9l22.71-98.59c.51-2.2,2.7-3.57,4.9-3.06,2.2.51,3.57,2.7,3.07,4.9l-22.71,98.59c-.44,1.92-2.17,3.2-4.06,3.17Z"/>
        <path class="cls-10" d="M292.22,272.95c-.19,0-.38,0-.57-.03h-.16c-.32-.04-.64-.08-.97-.15-3.15-.73-7.04-3.98-6.2-7.62l20.25-87.88-8.34,4.07c-1.61.69-3.35.3-4.43-.94-1.08-1.24-1.24-3.01-.4-4.42l9.55-16.03-12.3-14.04c-1.08-1.23-1.24-3.01-.4-4.42s2.48-2.11,4.08-1.75l18.2,4.13,9.55-16.03c.84-1.41,2.49-2.11,4.08-1.75,1.6.36,2.78,1.71,2.93,3.34l1.69,18.59,18.2,4.13c1.6.36,2.78,1.71,2.93,3.34.15,1.64-.77,3.17-2.28,3.82l-17.15,7.36,1.69,18.59c.15,1.64-.76,3.17-2.27,3.82-1.51.65-3.25.25-4.34-.98-.05-.05-.09-.11-.13-.17l-5.3-7.38-19.61,86.23c-.66,2.88-4.61,6.18-8.33,6.18ZM307.73,171.13c.48,0,.96.16,1.36.47.66.52.96,1.38.77,2.2l-21.27,92.34c-.11.49,1.35,2.02,2.92,2.39.12.03.24.03.36.04l.2.02c1.76.18,4.04-1.96,4.23-2.79l20.69-90.95c.19-.84.85-1.48,1.69-1.65.83-.18,1.7.17,2.2.87l6.78,9.44-1.54-16.87c-.15-1.64.77-3.17,2.28-3.82l15.89-6.82-16.87-3.83c-1.6-.36-2.78-1.71-2.93-3.34l-1.57-17.23-8.86,14.86c-.84,1.41-2.48,2.12-4.08,1.75l-16.87-3.83,11.4,13.01c1.08,1.23,1.24,3.01.4,4.42l-8.77,14.72,10.63-5.19c.3-.15.63-.22.96-.22ZM346.04,156.4h0,0Z"/>
      </g>
      <g>
        <path class="cls-2" d="M76.72,72.03s-8.63-.21-3.89,6.3,31.37,12.17,59.95,12.17,57.5-7.14,58.98-12.33c1-3.51-5.39-5.58-5.39-5.58l-109.65-.56Z"/>
        <g>
          <path class="cls-11" d="M131.72,8.06c-.02-.05-.04-.08,0,0h0Z"/>
          <path class="cls-11" d="M131.76,8.14s-.03-.05-.04-.07c.02.04.04.07.04.07Z"/>
          <path class="cls-11" d="M131.76,8.14c.15-.31,0,0,0,0h0Z"/>
          <path class="cls-2" d="M163.41,36.96c-17.48-.83-29.33-22.04-31.75-26.75-2.42,4.72-14.27,25.93-31.75,26.75-19.73.93-38.53-22.89-38.53-22.89l17.67,63.38s19.09,6.76,52.37,6.76c30.56,0,52.85-6.76,52.85-6.76l17.67-63.38s-18.8,23.82-38.53,22.89Z"/>
        </g>
        <g>
          <path class="cls-11" d="M131.76,8.14c.15-.31,0,0,0,0h0Z"/>
          <g class="cls-7">
            <path class="cls-13" d="M99.91,36.96c-7.42.35-14.71-2.8-20.91-6.87l11.4,50.27c7.99,1.64,20.02,3.43,35.53,3.78l-.53-63.94c-5.59,7.51-14.4,16.23-25.49,16.75Z"/>
          </g>
        </g>
        <g>
          <path class="cls-11" d="M131.72,8.06c-.02-.05-.04-.08,0,0h0Z"/>
          <path class="cls-11" d="M131.76,8.14s-.03-.05-.04-.07c.02.04.04.07.04.07Z"/>
          <path class="cls-11" d="M131.76,8.14c.15-.31,0,0,0,0h0Z"/>
          <path class="cls-2" d="M163.41,36.96c-17.48-.83-29.33-22.04-31.75-26.75-2.42,4.72-14.27,25.93-31.75,26.75-19.73.93-38.53-22.89-38.53-22.89l17.67,63.38s19.09,6.76,52.37,6.76c30.56,0,52.85-6.76,52.85-6.76l17.67-63.38s-18.8,23.82-38.53,22.89Z"/>
        </g>
        <g class="cls-7">
          <path class="cls-13" d="M99.91,36.96c-7.42.35-14.71-2.8-20.91-6.87l10.5,47.26c7.99,1.64,20.02,3.43,35.53,3.78l.37-60.92c-5.59,7.51-14.4,16.23-25.49,16.75Z"/>
        </g>
        <circle class="cls-11" cx="131.66" cy="10.19" r="8.01"/>
        <path class="cls-11" d="M54.82,13.43c0-4.42,3.59-8.01,8.01-8.01s8.01,3.59,8.01,8.01-3.59,8.01-8.01,8.01-8.01-3.59-8.01-8.01Z"/>
        <path class="cls-11" d="M191.67,13.43c0-4.42,3.59-8.01,8.01-8.01s8.01,3.59,8.01,8.01-3.59,8.01-8.01,8.01-8.01-3.59-8.01-8.01Z"/>
        <path class="cls-10" d="M132.78,92.67c-36.09,0-54.57-6.89-55.34-7.18-2.22-.85-6.14-3.23-6.76-6.79-.7-4.04,1.37-6.56,3.47-7.87l-12.42-47.27c-5.11-.55-9.1-4.88-9.1-10.13,0-5.62,4.57-10.19,10.19-10.19s10.19,4.57,10.19,10.19c0,2.62-.99,5.07-2.74,6.93,6.68,6.28,18.04,14.95,29.52,14.42,11.09-.52,19.95-10.36,24.83-17.24-2.01-1.9-3.16-4.52-3.16-7.35,0-5.62,4.57-10.19,10.19-10.19s10.19,4.57,10.19,10.19c0,2.83-1.15,5.45-3.16,7.35,4.87,6.88,13.74,16.71,24.83,17.24,11.22.54,22.46-7.87,29.11-14.03-1.98-1.89-3.14-4.51-3.14-7.32,0-5.62,4.57-10.19,10.19-10.19s10.19,4.57,10.19,10.19c0,4.99-3.51,9.09-8.25,9.99l-12.52,47.35c.5.2.99.46,1.44.79,1.57,1.13,2.66,2.93,2.98,4.94.83,5.28-3.82,7.74-5.57,8.66-.57.31-14.64,7.51-55.17,7.51ZM65.88,22.19l12.95,49.29c.3,1.13-.35,2.3-1.47,2.64-.68.21-2.86,1.1-2.38,3.84.19,1.12,2.03,2.71,4.02,3.46.74.28,18.49,6.9,53.78,6.9,39.46,0,52.59-6.71,53.13-7,2.66-1.41,3.56-2.53,3.3-4.13-.14-.86-.58-1.62-1.22-2.08-.42-.3-.88-.43-1.27-.36-.73.12-1.47-.14-1.97-.68-.5-.55-.69-1.31-.5-2.03l13.17-49.83c-8.26,8.1-20.86,17.56-34.12,16.94-13.26-.63-23.31-11.69-29.41-20.87-.33-.5-.44-1.11-.31-1.69.13-.58.5-1.09,1.02-1.39,1.81-1.07,2.88-2.94,2.88-5,0-3.22-2.61-5.83-5.83-5.83s-5.83,2.61-5.83,5.83c0,2.06,1.08,3.93,2.89,5,.51.31.88.81,1.01,1.39.13.58.02,1.19-.31,1.69-6.1,9.17-16.16,20.24-29.41,20.87-13.26.6-25.8-8.77-34.13-16.95ZM199.68,7.6c-3.21,0-5.83,2.61-5.83,5.83,0,2.17,1.22,4.14,3.18,5.15.59.31,1.01.86,1.14,1.51.39-.51,1-.83,1.67-.85,3.18-.09,5.67-2.64,5.67-5.81,0-3.21-2.61-5.83-5.83-5.83ZM63.42,19.2c.55,0,1.07.21,1.46.56.13-.57.48-1.08.99-1.39,1.75-1.08,2.79-2.93,2.79-4.95,0-3.21-2.61-5.83-5.83-5.83s-5.83,2.61-5.83,5.83,2.61,5.83,5.83,5.83c.18-.03.31-.04.43-.05.05,0,.1,0,.15,0Z"/>
      </g>
      <path class="cls-1" d="M310.68,237.14s-17.17-6.86-18.57-13.27c-1.52-6.99,2.48-11.92,9.97-9.09,8.98,3.38,9.67,15.78,9.67,15.78l-1.07,6.58Z"/>
      <path class="cls-1" d="M263.58,242.18c1.22-.06,2.24.83,2.32,2.04.71,10.96,6.38,21.93,14.1,27.29,7.56,5.25,20.12,5.75,26.77-1.86,5.34-6.12,5.22-15.08,4.67-19.87-.48-4.18-1.52-8.41-2.52-12.49-.78-3.16-1.58-6.43-2.14-9.72-.2-1.19.59-2.32,1.78-2.52,1.2-.2,2.32.59,2.52,1.78.54,3.14,1.32,6.33,2.08,9.42,1.04,4.22,2.11,8.58,2.62,13.04,1.09,9.52-.94,17.77-5.71,23.24-4.21,4.83-10.63,7.32-17.28,7.32-5.26,0-10.67-1.56-15.26-4.74-8.14-5.65-14.08-16.19-15.65-27.44l1.72-5.47Z"/>
      <path class="cls-1" d="M5.3,334.59c-1,0-1.9-.69-2.13-1.71-6.14-27.98-3.3-57.9,7.98-84.23.47-1.11,1.75-1.62,2.86-1.15,1.11.47,1.62,1.76,1.14,2.86-10.93,25.5-13.68,54.48-7.73,81.58.26,1.18-.49,2.34-1.66,2.6-.16.04-.31.05-.47.05Z"/>
    </g>
  </g>
</svg>