<?xml version="1.0" encoding="UTF-8"?>
<svg id="Layer_2" data-name="Layer 2" xmlns="http://www.w3.org/2000/svg" viewBox="0 0 435.2 418.23">
  <defs>
    <style>
      .cls-1 {
        fill: #f1816c;
      }

      .cls-2 {
        fill: #a40634;
      }

      .cls-3 {
        fill: #ffafa4;
      }

      .cls-4 {
        fill: #d36054;
      }

      .cls-5 {
        fill: #fff;
      }

      .cls-6 {
        fill: #5e041c;
      }

      .cls-7 {
        fill: #ff0d36;
      }
    </style>
  </defs>
  <g id="_ÎÓÈ_1" data-name="—ÎÓÈ_1">
    <g>
      <g>
        <path class="cls-2" d="M278.53,409.74s9.25-6.36,20.81-5.78c11.56.58,13.87,11.56,12.72,13.3s-26.92.81-31.79,0c-3.47-.58-1.73-7.51-1.73-7.51Z"/>
        <path class="cls-2" d="M280.82,412.95c-1.02,0-1.97-.64-2.32-1.66-10.78-31.63-14.8-58.98-14.84-59.26-.19-1.34.73-2.58,2.07-2.77,1.33-.18,2.58.73,2.77,2.07.04.27,4,27.2,14.63,58.38.44,1.28-.25,2.67-1.53,3.11-.26.09-.53.13-.79.13Z"/>
      </g>
      <g>
        <path class="cls-2" d="M178.34,409.74s-9.25-6.36-20.81-5.78c-11.56.58-13.87,11.56-12.72,13.3s26.92.81,31.79,0c3.47-.58,1.73-7.51,1.73-7.51Z"/>
        <path class="cls-2" d="M176.05,412.95c-.26,0-.53-.04-.79-.13-1.28-.44-1.96-1.82-1.53-3.1,10.64-31.2,14.59-58.11,14.63-58.38.19-1.34,1.43-2.26,2.77-2.07,1.34.19,2.26,1.43,2.07,2.77-.04.27-4.06,27.63-14.84,59.26-.35,1.02-1.3,1.66-2.32,1.66Z"/>
      </g>
      <path class="cls-1" d="M107.22,70.88s-41.8-34.65-28.87-56.06C87.76-.78,105.19.17,111.02,7.81c7.47,9.8,16.69,23.12,26.94,31.31l-30.74,31.76Z"/>
      <g>
        <path class="cls-4" d="M97.37,22.99c-5.82,4.2-13.03,5.22-15.19,2.23s.7-9.38,6.52-13.59,12.4-4.62,14.56-1.63c2.16,2.99-.07,8.78-5.89,12.98Z"/>
        <path class="cls-2" d="M97.37,22.99c-5.82,4.2-13.29,5.39-15.19,2.23-1.18-1.98,4.36.12,12.44-5.62,7.28-5.16,7.63-10.8,8.64-9.6,2.38,2.81-.07,8.78-5.89,12.98Z"/>
      </g>
      <path class="cls-2" d="M107.4,74.21l-1.74-1.44c-1.77-1.47-43.26-36.26-29.41-59.21C81.16,5.42,88.83.49,97.28.03c6.46-.36,12.46,2.06,15.68,6.29h0c1.16,1.52,2.35,3.12,3.59,4.77,6.8,9.09,14.51,19.38,22.93,26.12l2.1,1.68-34.18,35.32ZM97.55,4.92c-6.81.37-13.05,4.44-17.11,11.17-10.28,17.03,19.1,44.74,26.63,51.43l27.3-28.21c-8.07-7.04-15.3-16.69-21.73-25.29-1.23-1.64-2.42-3.23-3.56-4.73h0c-3.07-4.03-8.92-4.52-11.52-4.37Z"/>
      <path class="cls-4" d="M217.32,3.7c-94.79,1.09-152.82,96.07-139.45,203.06,2.29,18.32,4.53,28.31,7.24,44.09,1.07,6.21,2.93,20.11-11.81,31.78-19.46,15.4-30.38,25.39-32,44.04s11.03,39.61,13.57,44.05c1.46,2.55,8.88,11.33,24.25,4.54,17.43-7.7,14-18.34,12.81-20.9-2.16-4.68-8.01-11.75-3.75-20.27,5.17-10.35,19.65-24.45,55.38-.84,26.21,17.32,57.79,25.67,84.77,25.67,66.67,0,121.08-53.06,132.08-160.71C370.28,101.94,323.74,2.47,217.32,3.7Z"/>
      <path class="cls-1" d="M217.32,3.7c-94.79,1.09-152.82,96.07-139.45,203.06,2.29,18.32,4.53,28.31,7.24,44.09,1.07,6.21,2.93,20.11-11.81,31.78-19.46,15.4-30.38,25.39-32,44.04-1.14,13.11,4.77,27.35,9.27,36.2,1.42-4.35,5.72-8.45,15.02-12.28,16.89-6.97,5.71-17.59,12.93-32.74,7.42-15.58,35.68-24.78,56.4-14.02,27.88,14.48,57.79,25.67,84.77,25.67,66.67,0,121.08-53.06,132.08-160.71,2.54-24.85,1.31-49.9-3.72-73.38C327.69,42.17,284.41,2.93,217.32,3.7Z"/>
      <g>
        <path class="cls-1" d="M69.68,355.47c7.49-3.34,15.78-2.79,17.49,1.05s-2.98,10.32-10.46,13.66c-7.49,3.34-14.94,2.26-16.65-1.58-1.71-3.84,2.13-9.79,9.62-13.13Z"/>
        <path class="cls-2" d="M69.68,355.47c7.49-3.34,16.12-2.92,17.49,1.05.86,2.48-4.84-1.15-15.21,3.37-9.34,4.07-11.05,10.29-11.9,8.71-2-3.7,2.13-9.79,9.62-13.13Z"/>
      </g>
      <g>
        <circle class="cls-6" cx="273.92" cy="177.7" r="19.48" transform="translate(-22.06 315.56) rotate(-57.95)"/>
        <path class="cls-5" d="M286.64,172.73c0-2.87-2.32-5.19-5.19-5.19s-5.19,2.32-5.19,5.19,2.32,5.19,5.19,5.19,5.19-2.33,5.19-5.19Z"/>
        <path class="cls-5" d="M263.9,179.44c-1.58-3.48-3.92-5.82-5.23-5.23-1.31.59-1.08,3.9.5,7.38,1.58,3.48,3.92,5.82,5.23,5.23s1.08-3.9-.5-7.38Z"/>
      </g>
      <g>
        <circle class="cls-6" cx="163.1" cy="177.72" r="19.48" transform="translate(-71.29 120.75) rotate(-33.8)"/>
        <path class="cls-5" d="M175.81,172.73c0-2.87-2.32-5.19-5.19-5.19s-5.19,2.32-5.19,5.19,2.32,5.19,5.19,5.19,5.19-2.33,5.19-5.19Z"/>
        <path class="cls-5" d="M153.08,179.44c-1.58-3.48-3.92-5.82-5.23-5.23-1.31.59-1.08,3.9.5,7.38,1.58,3.48,3.92,5.82,5.23,5.23s1.08-3.9-.5-7.38Z"/>
      </g>
      <path class="cls-2" d="M68.48,380.18c-11.54,0-15.85-8.47-16.09-8.87-10.06-17.39-14.61-32.48-13.53-44.87,1.71-19.72,13.58-30.43,32.92-45.74,14.06-11.13,11.77-24.44,10.91-29.45-.78-4.52-1.51-8.57-2.23-12.47-1.74-9.56-3.39-18.6-5.03-31.72-7.72-61.78,7.62-119.87,42.08-159.37C143.64,17.76,178.14,1.7,217.29,1.25l.03,2.45-.03-2.45c41.19-.45,76.59,14.23,102.44,42.53,33.2,36.35,49.33,94.17,43.15,154.66-5.28,51.6-21.1,93.81-45.76,122.08-23.3,26.71-53.99,40.82-88.76,40.82-29.65,0-61.04-9.5-86.12-26.07-15.7-10.38-28.61-14.32-38.34-11.71-7.35,1.97-11.4,7.4-13.5,11.6-2.93,5.85-.16,10.86,2.27,15.27.66,1.19,4.6,6.89,1.86,14.15-1.96,5.2-6.81,9.54-14.4,12.89-4.37,1.93-8.25,2.7-11.63,2.7ZM219.21,6.13c-.62,0-1.24,0-1.86.01-37.72.43-70.96,15.91-96.13,44.76-33.06,37.89-48.36,96.03-40.92,155.55,1.62,12.99,3.26,21.96,4.99,31.45.71,3.92,1.46,7.98,2.23,12.52.9,5.24,3.63,21.18-12.7,34.11-20,15.84-29.59,25.17-31.08,42.33-.99,11.36,3.35,25.49,12.89,41.99.4.7,6.01,10.99,21.5,4.14,6.35-2.81,10.32-6.22,11.8-10.15,1.82-4.82-.7-8.49-1.57-10.06-2.56-4.65-6.44-11.67-2.36-19.82,2.55-5.11,7.51-11.7,16.62-14.14,11.15-2.99,25.38,1.17,42.31,12.35,24.3,16.06,54.71,25.27,83.43,25.27,71.03,0,119.5-59.26,129.65-158.51,6.05-59.13-9.61-115.52-41.89-150.86-24.49-26.81-57.97-40.95-96.91-40.95Z"/>
      <path class="cls-3" d="M160.25,42.31c-13.91-9.52-61.45,52.53-45.59,68.39s64.42-55.5,45.59-68.39Z"/>
      <path class="cls-2" d="M80.27,223.75c-2.28.12-4.51.18-6.68.18-21.8,0-38-5.99-48.21-17.85-16.41-19.06-11.16-45.98-10.93-47.12.27-1.32,1.56-2.17,2.88-1.91,1.32.27,2.18,1.56,1.91,2.88-.05.26-4.98,25.77,9.87,42.98,10.19,11.81,27.31,17.17,50.9,15.95l.25,4.89Z"/>
      <g>
        <path class="cls-2" d="M16.74,166.34s6.6-16.5,2.82-23.57S.03,143.28,0,149.48s13.49,17.92,13.49,17.92l3.25-1.06Z"/>
        <path class="cls-2" d="M16.85,164.97s10.32-7.2,9.12-9.44c-1.49-2.77-8.47,3.19-8.47,3.19l-.64,6.26Z"/>
      </g>
      <g>
        <path class="cls-2" d="M355.24,218.86c23.6,1.23,40.68-4.15,50.87-15.98,14.86-17.26,9.89-42.69,9.84-42.95-.27-1.33.58-2.62,1.91-2.89,1.32-.27,2.61.59,2.88,1.91.23,1.14,5.48,28.06-10.93,47.12-10.21,11.86-26.41,17.85-48.21,17.85-2.17,0-4.4-.06-6.68-.18l.31-4.88Z"/>
        <g>
          <path class="cls-2" d="M418.46,166.34s-6.6-16.5-2.82-23.57,19.53.51,19.56,6.71-13.49,17.92-13.49,17.92l-3.24-1.06Z"/>
          <path class="cls-2" d="M418.35,164.97s-10.32-7.2-9.12-9.44c1.49-2.77,8.47,3.19,8.47,3.19l.64,6.26Z"/>
        </g>
      </g>
      <path class="cls-6" d="M218.39,228.04c16.66-.89,18.09,9.7,28.92,4s-3.74-29.66-30.65-28.23-33.06,26.32-27.94,30.08c7.58,5.57,17.71-5.21,29.67-5.85Z"/>
      <path class="cls-7" d="M220.37,214.53c-10.67-.38-20.36,9.26-20.94,19.74,5.6-2.01,11.96-5.85,18.96-6.22,11.9-.64,16.03,4.59,21.37,5.54-.97-9.71-9.44-18.7-19.38-19.06Z"/>
      <path class="cls-7" d="M165.4,213.22h-33.47c-1.35,0-2.45-1.1-2.45-2.45s1.09-2.45,2.45-2.45h33.47c1.35,0,2.45,1.1,2.45,2.45s-1.09,2.45-2.45,2.45Z"/>
      <path class="cls-7" d="M154.83,227.31h-33.47c-1.35,0-2.45-1.1-2.45-2.45s1.09-2.45,2.45-2.45h33.47c1.35,0,2.45,1.1,2.45,2.45s-1.09,2.45-2.45,2.45Z"/>
      <path class="cls-7" d="M304.56,213.22h-33.47c-1.35,0-2.45-1.1-2.45-2.45s1.09-2.45,2.45-2.45h33.47c1.35,0,2.45,1.1,2.45,2.45s-1.09,2.45-2.45,2.45Z"/>
      <path class="cls-7" d="M315.13,227.31h-33.47c-1.35,0-2.45-1.1-2.45-2.45s1.09-2.45,2.45-2.45h33.47c1.35,0,2.45,1.1,2.45,2.45s-1.1,2.45-2.45,2.45Z"/>
    </g>
  </g>
</svg>