<svg version="1.1" id="Layer_1" xmlns="http://www.w3.org/2000/svg" xmlns:xlink="http://www.w3.org/1999/xlink" x="0px" y="0px"
	 width="100%" viewBox="0 0 1024 1024" enable-background="new 0 0 1024 1024" xml:space="preserve">
<path fill="#000000" opacity="1.000000" stroke="none" 
	d="
M497.463806,221.208038 
	C534.891846,216.803604 571.494446,217.950470 606.605408,231.637512 
	C653.602783,249.958145 688.672546,281.453308 710.338623,327.535339 
	C721.919434,352.166870 729.744812,377.785400 733.023315,404.744476 
	C735.925476,428.609497 735.980042,452.548981 733.590942,476.483673 
	C731.841125,494.013458 730.155823,511.549805 728.348938,529.073669 
	C728.049255,531.980530 729.686462,533.715576 731.373779,535.574707 
	C748.507080,554.451721 763.029724,575.120239 773.461487,598.440796 
	C781.330078,616.031250 786.968506,634.243896 786.346130,653.868164 
	C786.179626,659.115967 785.071106,664.082336 782.561218,668.717407 
	C778.757507,675.741760 772.624451,678.900696 764.891907,678.830261 
	C757.797424,678.765686 753.057983,674.534668 750.058411,668.585144 
	C748.486694,665.467834 746.984558,663.870483 743.189758,663.638855 
	C735.881104,663.192871 731.429749,658.776611 729.692078,651.660400 
	C727.253906,641.675598 723.270142,632.406006 716.937317,624.232788 
	C716.238586,623.330994 715.737305,622.195251 713.941162,621.805969 
	C711.884155,627.265015 709.923401,632.843567 707.697693,638.314331 
	C693.767700,672.554443 671.338623,699.698608 639.836975,719.194031 
	C637.653320,720.545410 636.431580,722.094421 636.359741,724.751404 
	C635.886047,742.279968 633.104004,759.509033 629.114258,776.537476 
	C628.379883,779.671875 629.134521,781.086670 631.848206,782.311707 
	C639.172485,785.618225 645.151550,790.437073 648.918274,797.765869 
	C654.364319,808.362061 651.557129,815.376709 640.253967,818.959839 
	C632.265442,821.492126 623.973083,822.614502 615.695007,823.065552 
	C598.883850,823.981201 582.072510,823.829712 565.473083,820.290771 
	C554.154663,817.877625 548.807312,811.441956 548.957397,799.954041 
	C549.166260,783.967041 549.516174,767.981995 549.747559,751.995239 
	C549.775635,750.055359 550.308472,748.003845 548.819580,745.721130 
	C541.269775,746.211609 533.510925,746.962646 525.737244,747.178833 
	C487.830688,748.232910 450.169647,746.590698 413.476898,735.773254 
	C409.650024,734.644958 407.880768,736.803955 405.940674,739.064758 
	C395.527802,751.199158 385.162903,763.374756 374.774872,775.530518 
	C371.853943,778.948547 368.996674,782.426270 365.961670,785.740540 
	C357.270874,795.231262 346.485382,797.731934 334.536652,793.891968 
	C318.775848,788.826965 306.091492,778.791626 294.691986,767.137207 
	C286.843506,759.113281 280.127045,750.217957 276.346100,739.433960 
	C270.721771,723.392273 279.273193,710.706909 296.206390,710.415588 
	C302.160583,710.313110 308.227966,710.342590 313.933838,712.663513 
	C315.751190,713.402771 317.309631,713.591431 318.792358,711.759460 
	C322.864044,706.728760 327.088257,701.821533 331.382080,696.710754 
	C323.780853,686.218933 316.469147,675.937927 310.878632,664.507385 
	C296.797729,635.717041 292.487793,605.371094 295.416992,573.694763 
	C296.152710,565.738464 296.966888,557.817810 298.561981,549.993408 
	C299.198975,546.868713 297.414886,545.538513 295.070129,544.198547 
	C271.736908,530.864746 251.935059,513.559570 236.434097,491.519348 
	C224.208115,474.135681 214.670914,455.568146 213.259354,433.887177 
	C212.293686,419.054962 216.008835,405.680298 228.090027,395.934204 
	C242.435776,384.361328 259.886139,387.533966 269.591736,403.206421 
	C270.796509,405.151825 271.859436,407.185089 273.067078,409.317078 
	C274.944275,408.430145 276.532715,407.538849 278.218811,406.908752 
	C283.736633,404.846893 288.805725,406.153473 292.558929,410.734955 
	C296.903473,416.038300 299.059875,422.446655 297.460480,428.928284 
	C294.774261,439.814087 297.927032,449.310242 302.503052,458.715851 
	C304.430176,462.676880 306.564545,466.568207 310.142609,470.451294 
	C311.034760,459.851013 311.816650,450.140930 312.674469,440.437561 
	C317.500488,385.847626 333.431244,335.234467 368.618927,292.334320 
	C401.833557,251.839676 445.043213,228.385300 497.463806,221.208038 
M709.104065,342.335541 
	C685.611328,285.359894 644.018127,248.703415 584.708435,232.440323 
	C553.680054,223.932159 522.049438,224.321609 490.590668,229.502289 
	C453.005493,235.691879 419.995117,251.884750 392.034363,277.910339 
	C360.365570,307.387329 340.941711,344.104004 329.502045,385.340576 
	C319.410675,421.716858 317.643127,459.133850 316.338074,496.578979 
	C316.245483,499.234711 316.447479,501.884216 315.785980,504.527649 
	C310.979309,523.736084 306.657684,543.039246 303.769623,562.654053 
	C299.680267,590.427734 301.209778,617.710144 310.290924,644.404663 
	C316.318146,662.122070 325.624725,678.025146 337.504700,692.398315 
	C340.466980,695.982239 340.284332,698.427368 337.160492,701.716125 
	C332.118500,707.024353 327.329315,712.603333 322.803925,718.359314 
	C320.403320,721.412598 318.002625,721.867920 314.584473,720.618164 
	C308.933807,718.552124 303.112671,717.129639 297.018799,717.352661 
	C283.927765,717.831543 278.170410,726.640442 283.801453,738.326599 
	C294.609955,760.757446 312.177979,776.243835 334.739624,786.225342 
	C338.660156,787.959778 342.889526,788.797485 347.391113,788.144409 
	C354.600952,787.098389 359.227173,782.488098 363.615631,777.353333 
	C377.254120,761.395447 390.933472,745.472351 404.518982,729.469543 
	C406.247711,727.433167 407.886169,726.701904 410.558533,727.520264 
	C431.824249,734.033142 453.624054,737.543396 475.796539,738.937317 
	C509.966980,741.085571 544.057129,740.628418 577.834656,734.568787 
	C610.063904,728.787109 638.743958,715.360046 662.560547,692.550537 
	C697.626160,658.967590 711.830322,615.899170 717.589111,569.247375 
	C719.339539,555.067383 719.126587,540.634094 721.086670,526.493286 
	C725.711243,493.130157 728.752686,459.718079 727.692017,426.002472 
	C727.419373,417.335297 726.291931,408.761536 725.081665,400.201569 
	C722.294495,380.489624 716.709045,361.528290 709.104065,342.335541 
M220.662964,437.786438 
	C230.315887,484.508301 260.937256,514.530212 300.716858,539.371460 
	C303.182007,521.242798 310.203827,505.630280 309.738708,488.499237 
	C309.608215,483.693176 309.225159,479.582550 305.413422,475.911499 
	C302.358704,472.969574 300.090454,469.087952 297.937531,465.355530 
	C291.228455,453.724365 286.635010,441.623108 290.454956,427.812805 
	C290.912109,426.159973 290.485077,424.168762 290.126617,422.403687 
	C289.390015,418.776550 288.495331,414.897980 284.444336,413.674774 
	C280.192719,412.391052 277.720825,415.524292 275.372345,418.423065 
	C275.267609,418.552368 275.175873,418.693207 275.063385,418.815125 
	C271.832001,422.317657 269.692322,421.903076 267.825989,417.372345 
	C266.812958,414.913116 265.975586,412.377533 264.882507,409.956055 
	C261.869873,403.282257 257.483917,398.111786 249.825699,396.662994 
	C241.244507,395.039581 230.409119,401.005524 225.085907,410.284332 
	C220.313080,418.603760 219.837402,427.658051 220.662964,437.786438 
M637.620178,794.876831 
	C633.784241,790.979126 628.926880,788.754578 623.961426,786.820496 
	C620.749207,785.569214 619.629700,783.869019 620.648010,780.357605 
	C623.193909,771.578613 625.091492,762.626587 626.311584,753.568420 
	C627.521301,744.587036 628.979370,735.598267 628.662659,726.142395 
	C627.498718,726.365234 626.812988,726.356689 626.259277,726.622742 
	C605.642578,736.528992 583.797546,741.930969 561.143921,744.286499 
	C558.105713,744.602417 557.240784,746.060425 557.238159,748.837402 
	C557.222229,765.473694 555.840881,782.081787 556.278381,798.732788 
	C556.537292,808.583862 558.833496,811.906738 568.622864,813.734314 
	C589.932495,817.712463 611.314697,817.483765 632.566162,813.362610 
	C646.568970,810.647156 647.729187,806.397095 637.620178,794.876831 
M735.904846,647.684082 
	C736.068237,648.329590 736.206482,648.982788 736.399170,649.619385 
	C737.564514,653.468689 739.934570,656.141968 744.099792,656.384216 
	C748.187378,656.622070 747.746216,652.816772 748.849487,650.435974 
	C748.989319,650.134277 749.095032,649.816345 749.241211,649.518066 
	C750.106628,647.751709 751.231689,646.241882 753.472473,647.130493 
	C755.359863,647.879089 756.329285,649.421021 755.959045,651.514893 
	C755.669800,653.151245 755.143005,654.745117 754.843872,656.380188 
	C753.638855,662.967224 757.619934,669.600403 763.721863,671.248779 
	C769.246155,672.741211 774.805847,669.413025 777.326843,662.998108 
	C777.930420,661.462402 778.258911,659.814331 778.661499,658.204773 
	C780.883240,649.323608 778.884094,640.666443 777.049316,632.059570 
	C771.157227,604.419189 757.548584,580.549683 740.607544,558.360840 
	C736.637695,553.161255 732.976746,547.668335 727.330200,542.692078 
	C725.793518,565.763733 723.226074,587.849121 717.388062,609.422852 
	C716.644714,612.169861 718.046387,614.169983 719.712280,616.170349 
	C727.274597,625.251526 732.851013,635.380432 735.904846,647.684082 
z"/>
<path fill="#000000" opacity="1.000000" stroke="none" 
	d="
M223.503433,310.396790 
	C227.787750,318.645935 228.502747,327.541077 230.892975,335.961975 
	C232.248718,340.738342 233.169846,345.651489 234.039597,350.546936 
	C234.492035,353.093597 235.352295,356.452454 232.387177,357.705444 
	C229.398712,358.968292 227.683640,355.863037 226.140228,353.850677 
	C224.749573,352.037445 223.585815,349.893585 222.913177,347.713135 
	C219.830688,337.720795 216.874878,327.686981 214.063705,317.614990 
	C213.366058,315.115448 212.810654,312.265106 215.439011,310.282166 
	C217.948471,308.388916 220.576950,308.047516 223.503433,310.396790 
z"/>
<path fill="#000000" opacity="1.000000" stroke="none" 
	d="
M278.273621,328.936768 
	C273.277740,338.216217 268.449310,347.144287 263.587524,356.054108 
	C262.872864,357.363800 262.068787,358.637878 261.184235,359.838654 
	C259.755615,361.777954 257.755127,361.857422 255.816864,360.920929 
	C253.625519,359.862122 253.337509,357.870239 254.204849,355.803253 
	C258.645996,345.219513 263.071381,334.627777 267.671204,324.112762 
	C269.204468,320.607788 272.240997,319.828430 275.605560,321.329071 
	C278.759308,322.735626 280.229523,325.096527 278.273621,328.936768 
z"/>
<path fill="#000000" opacity="1.000000" stroke="none" 
	d="
M198.234482,370.003357 
	C189.872833,364.831665 181.803482,359.913544 173.821503,354.857513 
	C170.456314,352.725952 168.134720,349.963043 170.894730,345.812897 
	C173.087570,342.515564 176.739532,342.356201 180.873337,345.561371 
	C187.817062,350.945221 194.631744,356.495697 201.488815,361.990906 
	C202.133560,362.507599 202.769699,363.069794 203.279190,363.714142 
	C205.050812,365.954712 208.731598,368.175018 206.545685,371.165344 
	C204.329056,374.197662 201.158875,371.525909 198.234482,370.003357 
z"/>
<path fill="#000000" opacity="1.000000" stroke="none" 
	d="
M466.413269,395.932495 
	C474.542755,417.754089 455.933716,443.137085 433.645569,442.354828 
	C414.936951,441.698181 400.237732,426.232056 399.408600,407.547424 
	C398.690308,391.360596 411.699677,372.903564 433.152069,372.124329 
	C447.674469,371.596771 460.894165,381.009888 466.413269,395.932495 
M421.075684,402.665833 
	C427.532867,402.936737 431.323151,400.825195 432.544830,396.276489 
	C433.795898,391.618317 432.103210,387.253662 428.205383,385.087036 
	C423.337036,382.380920 417.501373,384.004791 414.903961,388.788330 
	C411.940033,394.246887 413.864716,399.140808 421.075684,402.665833 
M445.508423,429.143127 
	C448.445679,427.352112 450.537323,425.051758 448.866364,421.416077 
	C447.495361,418.433105 445.042023,416.678925 441.618469,417.735779 
	C438.301636,418.759674 436.832947,421.371338 437.444580,424.720978 
	C438.177917,428.737152 440.975067,430.038788 445.508423,429.143127 
z"/>
<path fill="#000000" opacity="1.000000" stroke="none" 
	d="
M634.138306,395.006958 
	C649.242126,417.832977 633.946838,446.539001 608.446777,450.111969 
	C594.826294,452.020447 578.880310,441.745697 573.918884,427.425537 
	C565.960022,404.453979 580.495667,381.697662 604.849304,380.183746 
	C616.808838,379.440247 626.827759,384.669037 634.138306,395.006958 
M590.310059,409.155243 
	C595.874695,412.437134 600.652893,411.959290 603.966064,407.789581 
	C606.678589,404.375793 606.573975,398.521362 603.744873,395.410126 
	C600.354675,391.681854 594.605042,391.132233 590.715698,394.164642 
	C586.289978,397.615265 585.899658,403.459900 590.310059,409.155243 
M616.401184,437.608093 
	C620.071716,436.958160 622.620361,435.156677 622.606689,431.089447 
	C622.597168,428.262787 621.007507,426.279633 618.350037,425.589783 
	C614.845154,424.679962 611.855835,425.834076 610.759583,429.429077 
	C609.468018,433.664459 611.250793,436.535858 616.401184,437.608093 
z"/>
<path fill="#000000" opacity="1.000000" stroke="none" 
	d="
M534.848938,446.989197 
	C520.452759,455.868469 502.153503,451.283051 495.507935,437.408234 
	C495.006226,436.360718 494.510162,435.286682 494.208923,434.171631 
	C493.441711,431.331970 492.907013,428.280365 496.295990,426.847809 
	C499.867188,425.338196 501.937012,427.540619 503.218109,430.631683 
	C505.253113,435.541748 508.749420,438.867188 513.791260,440.534058 
	C521.364868,443.037933 530.492737,439.601807 534.564575,432.717651 
	C535.241211,431.573700 535.775146,430.346069 536.433899,429.190674 
	C537.889282,426.638275 540.090759,425.738464 542.768127,426.921936 
	C545.344849,428.060822 545.713013,430.434570 545.099365,432.871368 
	C543.610718,438.783173 540.085327,443.298584 534.848938,446.989197 
z"/>
</svg>